<?xml version="1.0" encoding="utf-8"?>
<!-- Generator: Adobe Illustrator 26.5.0, SVG Export Plug-In . SVG Version: 6.00 Build 0)  -->
<svg version="1.1" id="Layer_1" xmlns="http://www.w3.org/2000/svg" xmlns:xlink="http://www.w3.org/1999/xlink" x="0px" y="0px"
	 viewBox="0 0 886 229" style="enable-background:new 0 0 886 229;" xml:space="preserve">
<style type="text/css">
	.st0{fill:#FFFFFF;}
	.st1{fill:#0855FE;}
</style>
<g>
	<path class="st1" d="M224.8,165.7l-12.4-6l5.1-12.7c0.4-1,0.1-2.1-0.6-2.8l-14-13.2l-13.1,4.9l-5.6-13.2c-0.4-0.9-1.3-1.5-2.3-1.5
		h-16.2c-1,0-1.9,0.6-2.3,1.5l-5.6,13.2l-11.7-4.4c-0.9-0.3-1.9-0.1-2.6,0.5l-12.9,12.1c-0.8,0.7-1,1.8-0.6,2.8l5.1,12.7l-12.4,6
		c-0.9,0.4-1.4,1.3-1.4,2.3v14.5c0,0.9,0.4,1.7,1.2,2.1l13,8.2l-5.1,10.1c-0.4,0.9-0.3,2,0.3,2.7l9.3,11.5c0.6,0.7,1.4,1,2.3,0.9
		l15.4-2.3l5.6,11.8c0.4,0.9,1.3,1.4,2.3,1.4h16.4c1,0,1.9-0.6,2.3-1.4l5.6-11.8l15.4,2.3c0.9,0.1,1.8-0.2,2.3-0.9l9.3-11.5
		c0.6-0.8,0.7-1.8,0.3-2.7l-5.1-10.1l13-8.2c0.7-0.5,1.2-1.3,1.2-2.1V168C226.2,167,225.7,166.2,224.8,165.7z M173.7,197.4
		c-12.3,0-22.2-9.9-22.2-22.2c0-12.3,9.9-22.2,22.2-22.2c12.3,0,22.2,9.9,22.2,22.2C195.9,187.4,185.9,197.4,173.7,197.4z
		 M116.3,118.5l21.4-4.5c1.2-0.3,2.2-1.1,2.6-2.3l7.1-19.3c0.5-1.3,0.2-2.7-0.8-3.7l-13.6-14.1l13.1-14.5c1-1.1,1.2-2.7,0.5-4
		l-12.2-24.5l-19.9,0.1l-0.9-20.3c-0.1-1.4-1-2.7-2.3-3.2l-21.7-8c-1.4-0.5-2.9-0.1-3.9,0.9L71.9,15.9L58.5,4.4
		c-1-0.9-2.5-1.1-3.7-0.6l-23.1,9.8c-1.4,0.6-2.2,1.9-2.2,3.4l0.5,19.5l-19.5,1.9c-1.4,0.1-2.5,1-3,2.3L0.2,59.9
		c-0.4,1.2-0.2,2.4,0.5,3.4l13.3,17.4l-11.8,11c-1,1-1.4,2.4-1,3.8L8,115.4c0.4,1.2,1.4,2.1,2.7,2.4l21.7,4.5l1.7,18.5
		c0.1,1.4,1,2.6,2.3,3l21.9,8.1c1.3,0.5,2.8,0.2,3.7-0.8l13.4-13l19.4,10.7c1.1,0.6,2.5,0.6,3.6-0.1l18-10.7
		c1.2-0.7,1.9-2.1,1.7-3.5L116.3,118.5z M103.5,87c-6.1,16.4-24.2,24.7-40.6,18.7c-16.4-6.1-24.7-24.2-18.7-40.6
		c6.1-16.4,24.2-24.7,40.6-18.7C101.2,52.5,109.6,70.7,103.5,87z"/>
	<g>
		<rect x="381.6" y="66.6" class="st1" width="75.8" height="17.2"/>
		<rect x="381.6" y="107.8" class="st1" width="67.5" height="17.2"/>
		<polygon class="st1" points="614.5,66.6 597.3,66.6 597.3,166.3 599.2,166.3 614.5,166.3 666.8,166.3 666.8,149.1 614.5,149.1 		
			"/>
		<rect x="381.6" y="149.1" class="st1" width="75.8" height="17.2"/>
		<path class="st1" d="M301.5,66.6h-25.9v17.2l25.9,0.2c17.4,0.8,31.1,15,31.1,32.6c0,17.5-13.7,31.7-31.1,32.5l-25.9,0.1v17.2h25.9
			c15,0,28.5-6.7,37.5-17.2c7.7-8.7,12.3-20.2,12.3-32.7c0-12.5-4.6-24-12.3-32.7C330,73.3,316.5,66.6,301.5,66.6z"/>
		<path class="st1" d="M862.3,115.7v-0.5v-0.6c10-3.1,17.2-12.5,17.2-23.5c0-2.5-0.4-5-1.1-7.4c-3.1-10-12.4-17.2-23.4-17.2h-49.5
			v17.2h44.9c6.7,0,12,5.4,12,12.1c0,6.6-5.3,12-12,12h-44.9V125H855c6.6,0,12,5.4,12,12.1c0,6.6-5.4,12-12,12h-49.6v17.2h55.2
			c11.2,0,20.7-7.2,24.1-17.2c0.8-2.6,1.3-5.3,1.3-8.2C886,127.5,875.5,116.5,862.3,115.7z"/>
		<polygon class="st1" points="477.4,66.6 513.9,166.3 533.8,166.3 496.6,66.6 		"/>
		<polygon class="st1" points="533.5,121.1 543.4,147.7 573.1,66.6 553.8,66.6 		"/>
		<polygon class="st1" points="729.4,66.6 766.6,166.3 785.8,166.3 749.4,66.6 		"/>
		<polygon class="st1" points="690.2,166.3 709.4,166.3 729.7,111.8 719.8,85.2 		"/>
	</g>
</g>
</svg>
